<svg width="160" height="159" viewBox="0 0 160 159" fill="none" xmlns="http://www.w3.org/2000/svg">
<rect x="4" y="4" width="152" height="151" rx="75.5" fill="black"/>
<path d="M80.0115 44.3329C91.5547 44.3329 92.9097 44.384 97.4721 44.5884C101.692 44.7757 103.973 45.4741 105.499 46.0702C107.523 46.8537 108.964 47.7735 110.473 49.2724C111.983 50.7713 112.926 52.202 113.698 54.2119C114.281 55.7278 115.001 57.9932 115.19 62.1833C115.396 66.714 115.447 68.0596 115.447 79.5227C115.447 90.9858 115.396 92.3314 115.19 96.8621C115.001 101.052 114.298 103.318 113.698 104.833C112.909 106.843 111.983 108.274 110.473 109.773C108.964 111.272 107.523 112.209 105.499 112.975C103.973 113.554 101.692 114.27 97.4721 114.457C92.9097 114.661 91.5547 114.712 80.0115 114.712C68.4682 114.712 67.1132 114.661 62.5508 114.457C58.3314 114.27 56.0502 113.571 54.5237 112.975C52.4998 112.192 51.059 111.272 49.5496 109.773C48.0402 108.274 47.0969 106.843 46.3251 104.833C45.7419 103.318 45.0215 101.052 44.8328 96.8621C44.627 92.3314 44.5756 90.9858 44.5756 79.5227C44.5756 68.0596 44.627 66.714 44.8328 62.1833C45.0215 57.9932 45.7247 55.7278 46.3251 54.2119C47.114 52.202 48.0402 50.7713 49.5496 49.2724C51.059 47.7735 52.4998 46.8367 54.5237 46.0702C56.0502 45.4911 58.3314 44.7757 62.5508 44.5884C67.1132 44.3669 68.4854 44.3329 80.0115 44.3329ZM80.0115 36.6C68.2795 36.6 66.8045 36.6511 62.1906 36.8555C57.5939 37.0599 54.4551 37.7923 51.7108 38.8483C48.8635 39.9384 46.4623 41.4203 44.061 43.8049C41.6597 46.1895 40.1847 48.5911 39.0698 51.4015C38.0064 54.1267 37.2688 57.2438 37.063 61.8256C36.8572 66.3904 36.8057 67.8552 36.8057 79.5057C36.8057 91.1561 36.8572 92.6209 37.063 97.2028C37.2688 101.768 38.0064 104.885 39.0698 107.627C40.1675 110.454 41.6597 112.839 44.061 115.223C46.4623 117.608 48.8807 119.073 51.7108 120.18C54.4551 121.236 57.5939 121.968 62.2078 122.173C66.8216 122.377 68.2795 122.428 80.0286 122.428C91.7777 122.428 93.2356 122.377 97.8495 122.173C102.446 121.968 105.585 121.236 108.346 120.18C111.194 119.09 113.595 117.608 115.996 115.223C118.398 112.839 119.873 110.437 120.987 107.627C122.051 104.902 122.788 101.785 122.994 97.2028C123.2 92.6209 123.252 91.1731 123.252 79.5057C123.252 67.8382 123.2 66.3904 122.994 61.8086C122.788 57.2438 122.051 54.1267 120.987 51.3845C119.89 48.557 118.398 46.1724 115.996 43.7878C113.595 41.4032 111.177 39.9384 108.346 38.8313C105.602 37.7752 102.463 37.0428 97.8495 36.8384C93.2185 36.6511 91.7434 36.6 80.0115 36.6Z" fill="white"/>
<path d="M80.0114 57.4822C67.765 57.4822 57.8168 67.3442 57.8168 79.5227C57.8168 91.7012 67.7478 101.563 80.0114 101.563C92.2751 101.563 102.206 91.7012 102.206 79.5227C102.206 67.3442 92.2751 57.4822 80.0114 57.4822ZM80.0114 93.8132C72.0529 93.8132 65.6038 87.4089 65.6038 79.5057C65.6038 71.6024 72.0529 65.1981 80.0114 65.1981C87.9699 65.1981 94.4191 71.6024 94.4191 79.5057C94.4191 87.4089 87.9699 93.8132 80.0114 93.8132Z" fill="white"/>
<path d="M103.081 61.7404C105.942 61.7404 108.261 59.4374 108.261 56.5965C108.261 53.7556 105.942 51.4526 103.081 51.4526C100.22 51.4526 97.9009 53.7556 97.9009 56.5965C97.9009 59.4374 100.22 61.7404 103.081 61.7404Z" fill="white"/>
<rect x="4" y="4" width="152" height="151" rx="75.5" stroke="black" stroke-width="8"/>
</svg>
