<svg width="136" height="136" viewBox="0 0 136 136" fill="none" xmlns="http://www.w3.org/2000/svg">
<rect x="4" y="4" width="128" height="128" rx="64" fill="black"/>
<path d="M84.7322 56.3221C90.1339 60.1972 96.7513 62.4773 103.898 62.4773V48.6751C102.546 48.6754 101.197 48.5339 99.8733 48.2525V59.1167C92.7268 59.1167 86.1103 56.8367 80.7071 52.9619V81.128C80.7071 95.2181 69.3255 106.64 55.2862 106.64C50.0479 106.64 45.179 105.05 41.1345 102.325C45.7507 107.061 52.1883 110 59.3104 110C73.3505 110 84.7328 98.5784 84.7328 84.4877V56.3221H84.7322ZM89.6975 42.3975C86.9369 39.3708 85.1244 35.4594 84.7322 31.1351V29.3599H80.9179C81.878 34.856 85.1528 39.5515 89.6975 42.3975ZM50.0143 91.5123C48.4719 89.4828 47.6384 87.0001 47.6422 84.4473C47.6422 78.003 52.8481 72.7779 59.2708 72.7779C60.4678 72.7776 61.6576 72.9615 62.7982 73.3248V59.2142C61.4652 59.0308 60.1198 58.953 58.7749 58.9815V69.9645C57.6334 69.6013 56.443 69.4168 55.2458 69.418C48.8231 69.418 43.6174 74.6425 43.6174 81.0877C43.6174 85.6448 46.2195 89.5903 50.0143 91.5123Z" fill="#FF004F"/>
<path d="M80.707 52.9616C86.1102 56.8364 92.7267 59.1164 99.8732 59.1164V48.2522C95.8841 47.3995 92.3526 45.3074 89.6974 42.3975C85.1524 39.5512 81.8779 34.8557 80.9178 29.3599H70.8987V84.4871C70.876 90.9138 65.679 96.1176 59.2701 96.1176C55.4934 96.1176 52.1382 94.3109 50.0133 91.5123C46.2188 89.5903 43.6167 85.6446 43.6167 81.0879C43.6167 74.6434 48.8224 69.4182 55.2451 69.4182C56.4756 69.4182 57.6617 69.6105 58.7743 69.9648V58.9818C44.9817 59.2678 33.8891 70.5777 33.8891 84.4874C33.8891 91.431 36.6514 97.7256 41.1347 102.325C45.1792 105.05 50.0481 106.64 55.2864 106.64C69.3259 106.64 80.7073 95.2179 80.7073 81.128V52.9616H80.707Z" fill="white"/>
<path d="M99.8733 48.2523V45.3147C96.276 45.3202 92.7495 44.3092 89.6974 42.3973C92.3992 45.3657 95.9568 47.4125 99.8733 48.2523ZM80.9179 29.3599C80.8263 28.8347 80.7559 28.306 80.7071 27.7752V26H66.8735V81.1278C66.8514 87.5536 61.6546 92.7574 55.2451 92.7574C53.3634 92.7574 51.5868 92.3092 50.0134 91.5126C52.1383 94.311 55.4935 96.1174 59.2702 96.1174C65.6785 96.1174 70.8764 90.9142 70.8988 84.4875V29.3599H80.9179ZM58.7749 58.9819V55.8546C57.619 55.696 56.4536 55.6165 55.2868 55.6171C41.2461 55.6168 29.8644 67.0388 29.8644 81.1278C29.8644 89.9608 34.3376 97.7453 41.135 102.324C36.6518 97.7254 33.8895 91.4305 33.8895 84.4872C33.8895 70.5778 44.9818 59.2679 58.7749 58.9819Z" fill="#00F2EA"/>
<rect x="4" y="4" width="128" height="128" rx="64" stroke="black" stroke-width="8"/>
</svg>
