<svg width="136" height="136" viewBox="0 0 136 136" fill="none" xmlns="http://www.w3.org/2000/svg">
<rect x="4" y="4" width="128" height="128" rx="64" fill="#FF0000"/>
<path d="M109.095 47.3913C108.107 43.7195 105.212 40.8244 101.54 39.8359C94.832 38 67.9998 38 67.9998 38C67.9998 38 41.1676 38 34.4596 39.7653C30.8584 40.7538 27.8927 43.7195 26.9042 47.3913C25.1389 54.0993 25.1389 68.0097 25.1389 68.0097C25.1389 68.0097 25.1389 81.9907 26.9042 88.6281C27.8927 92.2999 30.7878 95.195 34.4596 96.1835C41.2382 98.0194 67.9998 98.0194 67.9998 98.0194C67.9998 98.0194 94.832 98.0194 101.54 96.2541C105.212 95.2656 108.107 92.3705 109.095 88.6987C110.861 81.9907 110.861 68.0803 110.861 68.0803C110.861 68.0803 110.931 54.0993 109.095 47.3913Z" fill="white"/>
<path d="M59.4559 80.8609L81.769 68.0097L59.4559 55.1584V80.8609Z" fill="#FF0000"/>
<rect x="4" y="4" width="128" height="128" rx="64" stroke="black" stroke-width="8"/>
</svg>
